<svg width="75" height="26" viewBox="0 0 75 26" fill="none" xmlns="http://www.w3.org/2000/svg">
<path d="M23.4188 7.93585C22.7437 6.44496 21.797 5.13259 20.6361 4.04742C19.4762 2.96226 18.1022 2.10537 16.5702 1.52871C10.2442 -0.848272 3.16087 2.36287 0.78281 8.68778C-1.59201 15.0138 1.61914 22.0939 7.94513 24.473C9.36028 25.0042 10.8133 25.2574 12.2436 25.2552C17.2042 25.2552 21.8824 22.2215 23.7293 17.3129C24.8815 14.2478 24.7723 10.9176 23.4199 7.93477L23.4188 7.93585ZM21.8402 18.0832C21.8338 18.094 21.8273 18.1059 21.8197 18.1167L21.7991 18.1546C20.8081 19.996 19.3096 21.5031 17.4671 22.5137L17.4293 22.5299C13.3839 24.8603 8.5337 24.5325 5.07479 21.6957C2.83846 19.8608 1.48281 17.2198 1.2621 14.2575C1.04247 11.2931 1.98591 8.36429 3.91497 6.01003C6.22596 3.1927 9.55395 1.71805 12.8441 1.71805C15.2232 1.71805 17.5807 2.48729 19.5228 4.07772C23.58 7.40787 24.557 13.2924 21.8435 18.0735L21.8392 18.0821L21.8402 18.0832Z" fill="white"/>
<path d="M18.8188 17.593C18.795 17.5995 18.7701 17.6049 18.742 17.6093H18.7398C18.5538 17.645 18.293 17.6493 17.936 17.5779C17.6179 17.514 17.2208 17.3885 16.7318 17.1689C15.5309 16.6301 14.463 15.8262 13.5542 14.7811C13.3897 14.5939 13.208 14.3981 13.0046 14.2055C13.8939 10.6557 11.4455 7.05402 10.4761 5.80549C10.2716 5.54258 10.1332 5.38354 10.1039 5.35216L8.9755 6.34969C8.9755 6.34969 8.97875 6.35294 8.98199 6.35835C9.14753 6.55093 12.0146 9.93518 11.6565 13.1983C11.0441 12.8564 10.342 12.6205 9.56731 12.6021C7.73886 12.5567 5.69079 13.6851 5.44519 15.6466V15.6488C5.2829 16.9688 6.08461 18.4434 7.23469 18.9357C7.5809 19.0828 7.96174 19.1586 8.35339 19.1586C8.3653 19.1586 8.37503 19.1586 8.38693 19.1564C8.86406 19.1532 9.35634 19.0374 9.82697 18.8145C10.6211 18.4412 11.6533 17.6157 12.4496 15.8079C13.4958 17.0012 14.7281 17.9208 16.1129 18.5451C16.3077 18.6317 16.4981 18.7106 16.6842 18.7799C16.9471 18.8773 17.2014 18.9541 17.4448 19.0125C18.0993 19.1683 18.6803 19.1834 19.1845 19.0579L18.8199 17.5941L18.8188 17.593ZM9.18431 17.4524C8.71259 17.6731 8.20625 17.7099 7.82758 17.5476C7.28121 17.315 6.85818 16.496 6.94041 15.8327C7.07456 14.7541 8.34041 14.106 9.46345 14.106H9.53161C10.1699 14.1211 10.7553 14.3754 11.2616 14.7205C10.7488 16.0956 10.0239 17.0531 9.18323 17.4513L9.18431 17.4524Z" fill="white"/>
<path d="M73.1908 11.424H72.9463V9.98829H73.5987C73.669 9.98829 73.7328 10.0002 73.7891 10.0229C73.8454 10.0456 73.8908 10.0759 73.9254 10.1149C73.959 10.1538 73.986 10.196 74.0044 10.2436C74.0228 10.2912 74.0315 10.341 74.0315 10.394C74.0315 10.4925 74.0012 10.5801 73.9395 10.6569C73.8778 10.7337 73.7924 10.7803 73.682 10.7965L74.078 11.4251H73.7967L73.444 10.8138H73.1908V11.4251V11.424ZM73.1908 10.0402V10.7619H73.4634C73.5165 10.7619 73.5651 10.751 73.6073 10.7305C73.6506 10.7099 73.6852 10.6818 73.7112 10.6461C73.7382 10.6115 73.7588 10.5725 73.7729 10.5293C73.7869 10.486 73.7945 10.4416 73.7945 10.3951C73.7945 10.3334 73.7826 10.2772 73.7599 10.2242C73.7372 10.1722 73.7004 10.1289 73.6495 10.0932C73.5987 10.0586 73.5381 10.0413 73.4689 10.0413H73.1897L73.1908 10.0402Z" fill="white"/>
<path d="M73.5123 9.21899C72.6911 9.21899 72.0247 9.88546 72.0247 10.7066C72.0247 11.5278 72.6911 12.1943 73.5123 12.1943C74.3335 12.1943 74.9999 11.5278 74.9999 10.7066C74.9999 9.88546 74.3335 9.21899 73.5123 9.21899ZM73.5123 11.979C72.8134 11.979 72.24 11.4066 72.24 10.7066C72.24 10.0066 72.8134 9.4343 73.5123 9.4343C74.2112 9.4343 74.7846 10.0012 74.7846 10.7066C74.7846 11.412 74.2166 11.979 73.5123 11.979Z" fill="white"/>
<path d="M27.6587 3.34526H29.7814V22.1436H27.6587V3.34526Z" fill="white"/>
<path d="M42.0959 22.1436H39.9731V20.379H39.7178C38.823 21.7855 37.3646 22.6045 35.6768 22.6045C32.378 22.6045 30.3062 20.2254 30.3062 16.9266V9.22767H32.4289V16.9255C32.4289 19.1251 33.7077 20.6852 35.9321 20.6852C38.1566 20.6852 39.9731 19.0223 39.9731 16.7459V9.22767H42.0959V22.1436Z" fill="white"/>
<path d="M42.6201 3.34525H44.7428V22.1436H42.6201V3.34525Z" fill="white"/>
<path d="M69.1877 9.22763V11.3244H68.9572C67.805 9.71233 66.2459 8.71588 64.0973 8.71588C62.0719 8.71588 60.3408 9.51867 59.155 10.8667V9.22763H57.0312V11.3244H56.8008C55.6507 9.71233 54.0916 8.71588 51.9429 8.71588C48.0794 8.71588 45.2935 11.6317 45.2935 15.6726C45.2935 19.7136 48.0805 22.6554 51.9429 22.6554C54.0916 22.6554 55.6767 21.6578 56.8008 20.0209H57.0312V22.1425H59.155V20.4915C60.3408 21.8461 62.0708 22.6554 64.0973 22.6554C66.2459 22.6554 67.8331 21.6578 68.9572 20.0209H69.1877V22.1425H71.3115V9.22763H69.1877ZM52.2232 20.736C49.4361 20.736 47.4151 18.5895 47.4151 15.6726C47.4151 12.7558 49.4361 10.6341 52.2232 10.6341C55.0102 10.6341 57.0063 12.7558 57.0063 15.6726C57.0063 18.5895 54.9864 20.736 52.2232 20.736ZM64.3796 20.736C61.5904 20.736 59.5716 18.5895 59.5716 15.6726C59.5716 12.7558 61.5915 10.6341 64.3796 10.6341C67.1677 10.6341 69.1628 12.7558 69.1628 15.6726C69.1628 18.5895 67.1418 20.736 64.3796 20.736Z" fill="white"/>
</svg>
